<svg xmlns="http://www.w3.org/2000/svg" width="480" height="330" class="">
    <defs>
        <style/>
    </defs>
    <style>@keyframes animation-gauge{0%{stroke-dasharray:0 329}}@keyframes animation-rainbow{0%,to{color:#7f00ff;fill:#7f00ff}14%{color:#a933ff;fill:#a933ff}29%{color:#007fff;fill:#007fff}43%{color:#00ff7f;fill:#00ff7f}57%{color:#ff0;fill:#ff0}71%{color:#ff7f00;fill:#ff7f00}86%{color:red;fill:red}}svg{font-family:-apple-system,BlinkMacSystemFont,Segoe UI,Helvetica,Arial,sans-serif,Apple Color Emoji,Segoe UI Emoji;color:#777}h2,h3{margin:8px 0 2px;padding:0;color:#0366d6;font-weight:400}h2 svg,h3 svg{fill:currentColor}h2{font-size:16px}h3,svg{font-size:14px}section&gt;.field{margin-left:5px;margin-right:5px}.field{display:flex;align-items:center;margin-bottom:2px;white-space:nowrap}.field svg{margin:0 8px;fill:#959da5;flex-shrink:0}.field.error{color:#cb2431}.field.error svg{fill:#cb2431}.row{display:flex;flex-wrap:wrap}.horizontal .field,.row section{flex:1 1 0}.chart-bars .entry,.column{display:flex;flex-direction:column;align-items:center}.horizontal{justify-content:space-around}#metrics-end,.fill-width{width:100%}svg.bar{margin:4px 0}.chart{padding:0 8px}.chart-bars{display:flex;justify-content:space-between;align-items:flex-end;width:100%;margin:8px 0 4px;flex-grow:1;min-height:70px}.chart-bars .entry{flex-grow:1;font-size:10px;color:#666}.chart-bars .entry .value{font-size:6px}.chart-bars .bar{width:7px;background-color:var(--color-calendar-graph-day-bg);border:1px solid var(--color-calendar-graph-day-border);border-radius:5px}.chart-bars.horizontal{flex-direction:column;height:100%}.chart-bars.horizontal .entry{align-items:center;flex-direction:row;width:100%;min-height:1rem}.activity .field,.chart-bars.horizontal .entry .name{overflow:hidden;text-overflow:ellipsis;white-space:nowrap}.chart-bars.horizontal .entry .name{flex-shrink:0;text-align:right;width:34%}.chart-bars.horizontal .bar{height:7px;width:auto;margin:0 6px}.activity{margin-bottom:12px}.activity .field{width:100%;max-width:450px;margin-bottom:0}:root{--color-calendar-graph-day-bg:#ebedf0;--color-calendar-graph-day-border:rgba(27,31,35,0.06);--color-calendar-graph-day-L1-bg:#9be9a8;--color-calendar-graph-day-L2-bg:#40c463;--color-calendar-graph-day-L3-bg:#30a14e;--color-calendar-graph-day-L4-bg:#216e39;--color-calendar-halloween-graph-day-L1-bg:#ffee4a;--color-calendar-halloween-graph-day-L2-bg:#ffc501;--color-calendar-halloween-graph-day-L3-bg:#fe9600;--color-calendar-halloween-graph-day-L4-bg:#03001c;--color-calendar-winter-graph-day-L1-bg:#0a3069;--color-calendar-winter-graph-day-L2-bg:#0969da;--color-calendar-winter-graph-day-L3-bg:#54aeff;--color-calendar-winter-graph-day-L4-bg:#b6e3ff;--color-calendar-graph-day-L4-border:rgba(27,31,35,0.06);--color-calendar-graph-day-L3-border:rgba(27,31,35,0.06);--color-calendar-graph-day-L2-border:rgba(27,31,35,0.06);--color-calendar-graph-day-L1-border:rgba(27,31,35,0.06)}</style>
    <style/>
    <foreignObject x="0" y="0" width="100%" height="100%">
        <div xmlns="http://www.w3.org/1999/xhtml" xmlns:xlink="http://www.w3.org/1999/xlink" class="items-wrapper">
            <section>
                <h2 class="field">
                    <svg xmlns="http://www.w3.org/2000/svg" viewBox="0 0 16 16" width="16" height="16">
                        <path fill-rule="evenodd" d="M2.75 1a.75.75 0 000 1.5h.75v1.25a4.75 4.75 0 001.9 3.8l.333.25c.134.1.134.3 0 .4l-.333.25a4.75 4.75 0 00-1.9 3.8v1.25h-.75a.75.75 0 000 1.5h10.5a.75.75 0 000-1.5h-.75v-1.25a4.75 4.75 0 00-1.9-3.8l-.333-.25a.25.25 0 010-.4l.333-.25a4.75 4.75 0 001.9-3.8V2.5h.75a.75.75 0 000-1.5H2.75zM11 2.5H5v1.25a3.25 3.25 0 001.3 2.6l.333.25c.934.7.934 2.1 0 2.8l-.333.25a3.25 3.25 0 00-1.3 2.6v1.25h6v-1.25a3.25 3.25 0 00-1.3-2.6l-.333-.25a1.75 1.75 0 010-2.8l.333-.25a3.25 3.25 0 001.3-2.6V2.5z"/>
                    </svg>
                    WakaTime (over last month)
                </h2>
                <div class="row">
                    <section class="largeable-column-fields">
                        <div class="field">
                            <svg xmlns="http://www.w3.org/2000/svg" viewBox="0 0 16 16" width="16" height="16">
                                <path fill-rule="evenodd" d="M1.643 3.143L.427 1.927A.25.25 0 000 2.104V5.75c0 .138.112.25.25.25h3.646a.25.25 0 00.177-.427L2.715 4.215a6.5 6.5 0 11-1.18 4.458.75.75 0 10-1.493.154 8.001 8.001 0 101.6-5.684zM7.75 4a.75.75 0 01.75.75v2.992l2.028.812a.75.75 0 01-.557 1.392l-2.5-1A.75.75 0 017 8.25v-3.5A.75.75 0 017.75 4z"/>
                            </svg>
                            ~125 coding hours recorded
                        </div>
                        <div class="field">
                            <svg xmlns="http://www.w3.org/2000/svg" viewBox="0 0 16 16" width="16" height="16">
                                <path fill-rule="evenodd" d="M2 2.5A2.5 2.5 0 014.5 0h8.75a.75.75 0 01.75.75v12.5a.75.75 0 01-.75.75h-2.5a.75.75 0 110-1.5h1.75v-2h-8a1 1 0 00-.714 1.7.75.75 0 01-1.072 1.05A2.495 2.495 0 012 11.5v-9zm10.5-1V9h-8c-.356 0-.694.074-1 .208V2.5a1 1 0 011-1h8zM5 12.25v3.25a.25.25 0 00.4.2l1.45-1.087a.25.25 0 01.3 0L8.6 15.7a.25.25 0 00.4-.2v-3.25a.25.25 0 00-.25-.25h-3.5a.25.25 0 00-.25.25z"/>
                            </svg>
                            Working on storybrew
                        </div>
                        <div class="field">
                            <svg xmlns="http://www.w3.org/2000/svg" viewBox="0 0 16 16" width="16" height="16">
                                <path fill-rule="evenodd" d="M1.5 2.75a.25.25 0 01.25-.25h12.5a.25.25 0 01.25.25v8.5a.25.25 0 01-.25.25h-6.5a.75.75 0 00-.53.22L4.5 14.44v-2.19a.75.75 0 00-.75-.75h-2a.25.25 0 01-.25-.25v-8.5zM1.75 1A1.75 1.75 0 000 2.75v8.5C0 12.216.784 13 1.75 13H3v1.543a1.457 1.457 0 002.487 1.03L8.061 13h6.189A1.75 1.75 0 0016 11.25v-8.5A1.75 1.75 0 0014.25 1H1.75zm5.03 3.47a.75.75 0 010 1.06L5.31 7l1.47 1.47a.75.75 0 01-1.06 1.06l-2-2a.75.75 0 010-1.06l2-2a.75.75 0 011.06 0zm2.44 0a.75.75 0 000 1.06L10.69 7 9.22 8.47a.75.75 0 001.06 1.06l2-2a.75.75 0 000-1.06l-2-2a.75.75 0 00-1.06 0z"/>
                            </svg>
                            Mostly coding in C#
                        </div>
                    </section>
                    <section class="largeable-column-fields">
                        <div class="field">
                            <svg xmlns="http://www.w3.org/2000/svg" viewBox="0 0 16 16" width="16" height="16">
                                <path fill-rule="evenodd" d="M6 2a.75.75 0 01.696.471L10 10.731l1.304-3.26A.75.75 0 0112 7h3.25a.75.75 0 010 1.5h-2.742l-1.812 4.528a.75.75 0 01-1.392 0L6 4.77 4.696 8.03A.75.75 0 014 8.5H.75a.75.75 0 010-1.5h2.742l1.812-4.529A.75.75 0 016 2z"/>
                            </svg>
                            ~5 hours of coding per day
                        </div>
                        <div class="field">
                            <svg xmlns="http://www.w3.org/2000/svg" viewBox="0 0 16 16" width="16" height="16">
                                <path fill-rule="evenodd" d="M6.5.75a.75.75 0 00-1.5 0V2H3.75A1.75 1.75 0 002 3.75V5H.75a.75.75 0 000 1.5H2v3H.75a.75.75 0 000 1.5H2v1.25c0 .966.784 1.75 1.75 1.75H5v1.25a.75.75 0 001.5 0V14h3v1.25a.75.75 0 001.5 0V14h1.25A1.75 1.75 0 0014 12.25V11h1.25a.75.75 0 000-1.5H14v-3h1.25a.75.75 0 000-1.5H14V3.75A1.75 1.75 0 0012.25 2H11V.75a.75.75 0 00-1.5 0V2h-3V.75zm5.75 11.75h-8.5a.25.25 0 01-.25-.25v-8.5a.25.25 0 01.25-.25h8.5a.25.25 0 01.25.25v8.5a.25.25 0 01-.25.25zM5.75 5a.75.75 0 00-.75.75v4.5c0 .414.336.75.75.75h4.5a.75.75 0 00.75-.75v-4.5a.75.75 0 00-.75-.75h-4.5zm.75 4.5v-3h3v3h-3z"/>
                            </svg>
                            Using Windows
                        </div>
                    </section>
                </div>
                <div class="row">
                    <section class="column chart">
                        <h3>Projects activity</h3>
                        <div class="chart-bars horizontal">
                            <div class="entry">
                                <span class="name">storybrew</span>
                                <div class="bar" style="width: 0.5599999999999999%; background-color: var(--color-calendar-graph-day-L1-bg)"></div>
                                <span class="value">1%</span>
                            </div>
                            <div class="entry">
                                <span class="name">osu-storyboards</span>
                                <div class="bar" style="width: 0.104%; background-color: var(--color-calendar-graph-day-L1-bg)"></div>
                                <span class="value">0%</span>
                            </div>
                        </div>
                    </section>
                    <section class="column chart">
                        <h3>Language activity</h3>
                        <div class="chart-bars horizontal">
                            <div class="entry">
                                <span class="name">C#</span>
                                <div class="bar" style="width: 21%; background-color: var(--color-calendar-graph-day-L2-bg)"></div>
                                <span class="value">26%</span>
                            </div>
                            <div class="entry">
                                <span class="name">HTML</span>
                                <div class="bar" style="width: 6.263999999999999%; background-color: var(--color-calendar-graph-day-L1-bg)"></div>
                                <span class="value">8%</span>
                            </div>
                            <div class="entry">
                                <span class="name">Python</span>
                                <div class="bar" style="width: 3.12%; background-color: var(--color-calendar-graph-day-L1-bg)"></div>
                                <span class="value">4%</span>
                            </div>
                            <div class="entry">
                                <span class="name">Markdown</span>
                                <div class="bar" style="width: 3.04%; background-color: var(--color-calendar-graph-day-L1-bg)"></div>
                                <span class="value">4%</span>
                            </div>
                            <div class="entry">
                                <span class="name">JavaScript</span>
                                <div class="bar" style="width: 2.048%; background-color: var(--color-calendar-graph-day-L1-bg)"></div>
                                <span class="value">3%</span>
                            </div>
                        </div>
                    </section>
                </div>
            </section>
            <section>
                <h2 class="field">
                    <svg xmlns="http://www.w3.org/2000/svg" viewBox="0 0 16 16" width="16" height="16">
                        <path fill-rule="evenodd" d="M1.5 8a6.5 6.5 0 1113 0 6.5 6.5 0 01-13 0zM8 0a8 8 0 100 16A8 8 0 008 0zM6.379 5.227A.25.25 0 006 5.442v5.117a.25.25 0 00.379.214l4.264-2.559a.25.25 0 000-.428L6.379 5.227z"/>
                    </svg>
                </h2>
                <div class="row fill-width">
                    <section>
                        <div class="field error">
                            <svg xmlns="http://www.w3.org/2000/svg" viewBox="0 0 16 16" width="16" height="16">
                                <path fill-rule="evenodd" d="M2.343 13.657A8 8 0 1113.657 2.343 8 8 0 012.343 13.657zM6.03 4.97a.75.75 0 00-1.06 1.06L6.94 8 4.97 9.97a.75.75 0 101.06 1.06L8 9.06l1.97 1.97a.75.75 0 101.06-1.06L9.06 8l1.97-1.97a.75.75 0 10-1.06-1.06L8 6.94 6.03 4.97z"/>
                            </svg>
                            API error: 403
                        </div>
                    </section>
                </div>
            </section>
            <section class="steam">
                <h2 class="field">
                    <svg xmlns="http://www.w3.org/2000/svg" viewBox="0 0 16 16" width="16" height="16">
                        <path fill-rule="evenodd" d="M3.267 1.457c.3.286.312.76.026 1.06A6.475 6.475 0 001.5 7a6.472 6.472 0 001.793 4.483.75.75 0 01-1.086 1.034 8.89 8.89 0 01-.276-.304l.569-.49-.569.49A7.971 7.971 0 010 7c0-2.139.84-4.083 2.207-5.517a.75.75 0 011.06-.026zm9.466 0a.75.75 0 011.06.026A7.975 7.975 0 0116 7c0 2.139-.84 4.083-2.207 5.517a.75.75 0 11-1.086-1.034A6.475 6.475 0 0014.5 7a6.475 6.475 0 00-1.793-4.483.75.75 0 01.026-1.06zM8.75 8.582a1.75 1.75 0 10-1.5 0v5.668a.75.75 0 001.5 0V8.582zM5.331 4.736a.75.75 0 10-1.143-.972A4.983 4.983 0 003 7c0 1.227.443 2.352 1.177 3.222a.75.75 0 001.146-.967A3.483 3.483 0 014.5 7c0-.864.312-1.654.831-2.264zm6.492-.958a.75.75 0 00-1.146.967c.514.61.823 1.395.823 2.255 0 .86-.31 1.646-.823 2.255a.75.75 0 101.146.967A4.983 4.983 0 0013 7a4.983 4.983 0 00-1.177-3.222z"/>
                    </svg>
                    Steam
                </h2>
                <div class="row">
                    <section>
                        <div class="field error">
                            <svg xmlns="http://www.w3.org/2000/svg" viewBox="0 0 16 16" width="16" height="16">
                                <path fill-rule="evenodd" d="M2.343 13.657A8 8 0 1113.657 2.343 8 8 0 012.343 13.657zM6.03 4.97a.75.75 0 00-1.06 1.06L6.94 8 4.97 9.97a.75.75 0 101.06 1.06L8 9.06l1.97 1.97a.75.75 0 101.06-1.06L9.06 8l1.97-1.97a.75.75 0 10-1.06-1.06L8 6.94 6.03 4.97z"/>
                            </svg>
                            Unexpected error
                        </div>
                    </section>
                </div>
            </section>
        </div>
        <div xmlns="http://www.w3.org/1999/xhtml" id="metrics-end"></div>
    </foreignObject>
</svg>